<svg width="24" height="24" xmlns="http://www.w3.org/2000/svg">

 <g>
  <title>background</title>
  <rect fill="none" id="canvas_background" height="402" width="582" y="-1" x="-1"/>
 </g>
 <g>
  <title>Layer 1</title>
  <path id="svg_4" fill="#27ae60" d="m12,3.999976l-5,0.8l0,11.5l5,-0.8l0,-11.5z"/>
  <path id="svg_5" fill="#3498db" d="m7,18.299976l-5,1.3l0,3.5l5,0.9l0,-5.7z"/>
  <path id="svg_6" fill="#2ecc71" d="m2,3.999976l0,13l5,-1.3l0,-10.9l-5,-0.8z"/>
  <path id="svg_7" fill="#2980b9" d="m12,16.499976l-5,2.6l0,4.9l5,-0.9l0,-6.6z"/>
  <path id="svg_8" fill="#f39c12" d="m12,13.399976l-5,2.3l0,3.4l5.023,-2l-0.023,-3.7z"/>
  <path id="svg_9" fill="#f39c12" d="m8.9499,4.499976l2.5031,9.2l0.547,-0.2l0,-9.5l-3.0501,0.5z"/>
  <path id="svg_10" fill="#2ecc71" d="m12.078,3.999976l2.422,10.8l2.5,0l0,-10l-4.922,-0.8z"/>
  <path id="svg_11" fill="#f1c40f" d="m12,3.999976l0,10.3l2.5,-0.3l-2.422,-10l-0.078,0z"/>
  <path id="svg_12" fill="#f1c40f" d="m17.026,12.899976l-5.026,0.7l0,4.2l5,-0.5l0.026,-4.4z"/>
  <path id="svg_13" fill="#27ae60" d="m17,4.799976l0,8.2l5,-1.4l0,-7.6l-5,0.8z"/>
  <path id="svg_14" fill="#2980b9" d="m22,13.999976l-5,2.4l0,7.6l5,-0.9l0,-9.1z"/>
  <path id="svg_15" fill="#3498db" d="m17,16.399976l-4.997,0.7l-0.003,6l5,0.9l0,-7.6z"/>
  <path id="svg_16" fill="#f1c40f" d="m7,15.699976l-5,0.8l0,3.3l5,-0.7l0,-3.4z"/>
  <path id="svg_17" fill="#f39c12" d="m22,10.599976l-5,2.4l0,3.4l5,-1.6l0,-4.2z"/>
  <path stroke="null" id="svg_19" fill="#c0392b" d="m7.51919,7.257715c0.53258,-0.535601 0.798801,-1.205102 0.798801,-1.874604c0,-0.803402 -0.266222,-1.472903 -0.798801,-2.008504c-0.532443,-0.401701 -1.174892,-0.669501 -1.927483,-0.669501s-1.395176,0.267801 -1.927619,0.669501c-0.532443,0.535601 -0.798665,1.205102 -0.798665,2.008504c0,0.669501 0.266222,1.339003 0.798665,1.874604s1.175029,0.803402 1.927619,0.803402s1.39504,-0.267801 1.927483,-0.803402m3.524677,-1.874604c0,0.669501 -0.11723,1.339003 -0.351691,1.874604l-3.875822,8.034016c-0.11355,0.267801 -0.283943,0.401701 -0.511178,0.535601c-0.220011,0.1339 -0.457879,0.267801 -0.713469,0.267801s-0.497002,-0.1339 -0.724237,-0.267801c-0.220011,-0.1339 -0.383316,-0.267801 -0.489777,-0.535601l-3.887136,-8.034016c-0.234324,-0.535601 -0.351418,-1.205102 -0.351418,-1.874604c0,-1.472903 0.532443,-2.811906 1.597466,-3.883108c1.064887,-0.937302 2.349921,-1.472903 3.855102,-1.472903c1.505045,0 2.790216,0.535601 3.855102,1.472903c1.065432,1.071202 1.597057,2.410205 1.597057,3.883108"/>
 </g>
</svg>